<?xml version="1.0" encoding="UTF-8"?>
<!DOCTYPE svg PUBLIC "-//W3C//DTD SVG 1.1//EN" "http://www.w3.org/Graphics/SVG/1.1/DTD/svg11.dtd">
<!-- Creator: CorelDRAW -->
<svg xmlns="http://www.w3.org/2000/svg" xml:space="preserve" width="850px" height="850px" version="1.1" style="shape-rendering:geometricPrecision; text-rendering:geometricPrecision; image-rendering:optimizeQuality; fill-rule:evenodd; clip-rule:evenodd"
viewBox="0 0 850 850"
 xmlns:xlink="http://www.w3.org/1999/xlink">
 <defs>
  <style type="text/css">
   <![CDATA[
    .fil1 {fill:#FEFEFE}
    .fil0 {fill:url(#id0)}
   ]]>
  </style>
  <linearGradient id="id0" gradientUnits="userSpaceOnUse" x1="425" y1="850" x2="425" y2="0">
   <stop offset="0" style="stop-opacity:1; stop-color:#1AA8DC"/>
   <stop offset="0.490196" style="stop-opacity:1; stop-color:#AE3B89"/>
   <stop offset="1" style="stop-opacity:1; stop-color:#F26270"/>
  </linearGradient>
 </defs>
 <g id="Layer_x0020_1">
  <metadata id="CorelCorpID_0Corel-Layer"/>
  <circle class="fil0" cx="425" cy="425" r="425"/>
  <g id="_352951800">
   <g>
    <g>
     <g id="_352950120">
      <path class="fil1" d="M312 681c-61,0 -111,-50 -111,-112 0,-21 6,-41 17,-59 10,-16 24,-29 41,-38l0 -249c0,-30 24,-54 54,-54 30,0 54,24 54,54l0 249c35,20 57,57 57,97 0,62 -50,112 -112,112zm1 -498c-22,0 -40,18 -40,40l0 253c0,2 -1,5 -4,6 -33,17 -54,50 -54,87 0,54 44,98 97,98 54,0 98,-44 98,-98 0,-36 -21,-70 -53,-86 -3,-2 -4,-4 -4,-7l0 -253c0,-22 -18,-40 -40,-40z"/>
     </g>
     <g id="_352950696">
      <path class="fil1" d="M312 642c-40,0 -72,-33 -72,-73 0,-33 22,-62 54,-70l0 -238c0,-11 8,-19 18,-19 11,0 19,8 19,19l0 238c32,8 54,37 54,70 0,40 -33,73 -73,73zm0 -386c-2,0 -4,2 -4,5l0 243c0,4 -3,7 -6,7 -28,5 -48,30 -48,58 0,33 26,59 58,59 33,0 59,-26 59,-59 0,-28 -20,-53 -48,-58 -4,0 -6,-3 -6,-7l0 -243c0,-3 -2,-5 -5,-5z"/>
     </g>
    </g>
    <g>
     <g id="_352951080">
      <path class="fil1" d="M360 251l-17 0c-4,0 -7,-3 -7,-7 0,-3 3,-7 7,-7l17 0c4,0 7,4 7,7 0,4 -3,7 -7,7z"/>
     </g>
     <g id="_352950552">
      <path class="fil1" d="M360 287l-17 0c-4,0 -7,-3 -7,-7 0,-4 3,-7 7,-7l17 0c4,0 7,3 7,7 0,4 -3,7 -7,7z"/>
     </g>
     <g id="_352951272">
      <path class="fil1" d="M360 322l-17 0c-4,0 -7,-3 -7,-7 0,-4 3,-7 7,-7l17 0c4,0 7,3 7,7 0,4 -3,7 -7,7z"/>
     </g>
     <g id="_352951584">
      <path class="fil1" d="M360 357l-17 0c-4,0 -7,-3 -7,-7 0,-3 3,-7 7,-7l17 0c4,0 7,4 7,7 0,4 -3,7 -7,7z"/>
     </g>
     <g id="_352951632">
      <path class="fil1" d="M360 393l-17 0c-4,0 -7,-3 -7,-7 0,-4 3,-7 7,-7l17 0c4,0 7,3 7,7 0,4 -3,7 -7,7z"/>
     </g>
     <g id="_352951896">
      <path class="fil1" d="M360 428l-17 0c-4,0 -7,-3 -7,-7 0,-4 3,-7 7,-7l17 0c4,0 7,3 7,7 0,4 -3,7 -7,7z"/>
     </g>
     <g id="_352951968">
      <path class="fil1" d="M360 463l-17 0c-4,0 -7,-3 -7,-7 0,-4 3,-7 7,-7l17 0c4,0 7,3 7,7 0,4 -3,7 -7,7z"/>
     </g>
    </g>
    <g>
     <g id="_352952064">
      <path class="fil1" d="M525 425c-44,0 -80,-36 -80,-80 0,-44 36,-79 80,-79 44,0 79,35 79,79 0,44 -35,80 -79,80zm0 -145c-37,0 -66,29 -66,65 0,36 29,66 66,66 36,0 65,-30 65,-66 0,-36 -29,-65 -65,-65z"/>
     </g>
     <g id="_352951416">
      <path class="fil1" d="M480 352c-4,0 -7,-3 -7,-7 0,-28 23,-52 52,-52 4,0 7,4 7,7 0,4 -3,7 -7,7 -21,0 -38,17 -38,38 0,4 -3,7 -7,7z"/>
     </g>
     <g id="_352952208">
      <path class="fil1" d="M525 257c-4,0 -7,-3 -7,-7l0 -22c0,-4 3,-7 7,-7 4,0 7,3 7,7l0 22c0,4 -3,7 -7,7z"/>
     </g>
     <g id="_352952280">
      <path class="fil1" d="M572 270c-1,0 -2,-1 -3,-1 -3,-2 -5,-7 -3,-10l11 -19c2,-3 7,-4 10,-2 3,2 4,6 2,9l-11 19c-1,2 -3,4 -6,4z"/>
     </g>
     <g id="_352952352">
      <path class="fil1" d="M607 305c-2,0 -4,-2 -6,-4 -2,-3 0,-8 3,-9l19 -11c3,-2 7,-1 9,2 2,3 1,8 -2,10l-19 11c-1,0 -2,1 -4,1z"/>
     </g>
     <g id="_352952424">
      <path class="fil1" d="M642 352l-22 0c-4,0 -7,-3 -7,-7 0,-4 3,-7 7,-7l22 0c4,0 7,3 7,7 0,4 -3,7 -7,7z"/>
     </g>
     <g id="_352952496">
      <path class="fil1" d="M626 411c-1,0 -2,0 -3,-1l-19 -11c-3,-2 -5,-6 -3,-9 2,-4 7,-5 10,-3l19 11c3,2 4,6 2,9 -1,3 -3,4 -6,4z"/>
     </g>
     <g id="_352952568">
      <path class="fil1" d="M583 454c-2,0 -4,-1 -6,-4l-11 -18c-2,-4 0,-8 3,-10 3,-2 8,-1 9,3l11 18c2,4 1,8 -2,10 -1,1 -2,1 -4,1z"/>
     </g>
     <g id="_352952640">
      <path class="fil1" d="M525 470c-4,0 -7,-3 -7,-7l0 -22c0,-4 3,-7 7,-7 4,0 7,3 7,7l0 22c0,4 -3,7 -7,7z"/>
     </g>
     <g id="_352952712">
      <path class="fil1" d="M466 454c-1,0 -2,0 -4,-1 -3,-2 -4,-6 -2,-10l11 -18c2,-4 6,-5 9,-3 4,2 5,6 3,10l-11 18c-1,3 -4,4 -6,4z"/>
     </g>
     <g id="_352952784">
      <path class="fil1" d="M423 411c-2,0 -5,-1 -6,-4 -2,-3 -1,-7 3,-9l18 -11c4,-2 8,-1 10,3 2,3 1,7 -3,9l-18 11c-2,1 -3,1 -4,1z"/>
     </g>
     <g id="_352952856">
      <path class="fil1" d="M429 352l-22 0c-4,0 -7,-3 -7,-7 0,-4 3,-7 7,-7l22 0c4,0 7,3 7,7 0,4 -3,7 -7,7z"/>
     </g>
     <g id="_352952928">
      <path class="fil1" d="M442 305c-1,0 -2,-1 -4,-1l-18 -11c-4,-2 -5,-7 -3,-10 2,-3 6,-4 10,-2l18 11c4,1 5,6 3,9 -1,2 -4,4 -6,4z"/>
     </g>
     <g id="_352953000">
      <path class="fil1" d="M477 270c-2,0 -5,-2 -6,-4l-11 -19c-2,-3 -1,-7 2,-9 4,-2 8,-1 10,2l11 19c2,3 1,8 -3,10 -1,0 -2,1 -3,1z"/>
     </g>
    </g>
   </g>
  </g>
 </g>
</svg>
